<svg id="instagram" xmlns="http://www.w3.org/2000/svg" width="48" height="48" viewBox="0 0 48 48">
  <path id="instagram-brands_1_" data-name="instagram-brands (1)" d="M14.68,39.011a7.562,7.562,0,1,0,7.562,7.562A7.55,7.55,0,0,0,14.68,39.011Zm0,12.479A4.917,4.917,0,1,1,19.6,46.573a4.925,4.925,0,0,1-4.917,4.917ZM24.315,38.7a1.764,1.764,0,1,1-1.764-1.764A1.76,1.76,0,0,1,24.315,38.7Zm5.009,1.79a8.729,8.729,0,0,0-2.383-6.18,8.786,8.786,0,0,0-6.18-2.383c-2.435-.138-9.734-.138-12.17,0A8.774,8.774,0,0,0,2.411,34.3a8.758,8.758,0,0,0-2.383,6.18c-.138,2.435-.138,9.734,0,12.17a8.729,8.729,0,0,0,2.383,6.18,8.8,8.8,0,0,0,6.18,2.383c2.435.138,9.734.138,12.17,0a8.729,8.729,0,0,0,6.18-2.383,8.786,8.786,0,0,0,2.383-6.18C29.462,50.219,29.462,42.927,29.324,40.491ZM26.178,55.267a4.978,4.978,0,0,1-2.8,2.8c-1.942.77-6.549.592-8.694.592s-6.759.171-8.694-.592a4.978,4.978,0,0,1-2.8-2.8c-.77-1.942-.592-6.549-.592-8.694s-.171-6.759.592-8.694a4.978,4.978,0,0,1,2.8-2.8c1.942-.77,6.549-.592,8.694-.592s6.759-.171,8.694.592a4.978,4.978,0,0,1,2.8,2.8c.77,1.942.592,6.549.592,8.694S26.948,53.332,26.178,55.267Z" transform="translate(9.822 -22.484)" fill="#4f7df3"/>
  <g id="Ellipse_3" data-name="Ellipse 3" fill="none" stroke="rgba(194,211,255,0.68)" stroke-width="2">
    <circle cx="24" cy="24" r="24" stroke="none"/>
    <circle cx="24" cy="24" r="23" fill="none"/>
  </g>
</svg>
