<svg id="twitter" xmlns="http://www.w3.org/2000/svg" width="48" height="48" viewBox="0 0 48 48">
  <path id="twitter-brands_1_" data-name="twitter-brands (1)" d="M24.889,53.7c.018.246.018.493.018.739,0,7.516-5.72,16.176-16.176,16.176A16.066,16.066,0,0,1,0,68.06a11.766,11.766,0,0,0,1.373.07A11.386,11.386,0,0,0,8.431,65.7a5.7,5.7,0,0,1-5.316-3.943,7.171,7.171,0,0,0,1.074.088,6.013,6.013,0,0,0,1.5-.194,5.686,5.686,0,0,1-4.559-5.58V56a5.726,5.726,0,0,0,2.57.722,5.694,5.694,0,0,1-1.76-7.6A16.16,16.16,0,0,0,13.659,55.07a6.418,6.418,0,0,1-.141-1.3,5.691,5.691,0,0,1,9.839-3.89A11.193,11.193,0,0,0,26.966,48.5a5.67,5.67,0,0,1-2.5,3.133,11.4,11.4,0,0,0,3.274-.88A12.221,12.221,0,0,1,24.889,53.7Z" transform="translate(9.739 -35.082)" fill="#4f7df3"/>
  <g id="Ellipse_2" data-name="Ellipse 2" fill="none" stroke="rgba(194,211,255,0.68)" stroke-width="2">
    <circle cx="24" cy="24" r="24" stroke="none"/>
    <circle cx="24" cy="24" r="23" fill="none"/>
  </g>
</svg>
